<?xml version="1.0" encoding="UTF-8" standalone="no"?>
<!-- Created with Inkscape (http://www.inkscape.org/) -->

<svg
   width="32.353729mm"
   height="32.353733mm"
   viewBox="0 0 32.353729 32.353733"
   version="1.1"
   id="svg5"
   inkscape:export-filename="sqrf_white_svg.svg"
   inkscape:export-xdpi="96"
   inkscape:export-ydpi="96"
   sodipodi:docname="sqrf_black_svg.svg"
   xml:space="preserve"
   xmlns:inkscape="http://www.inkscape.org/namespaces/inkscape"
   xmlns:sodipodi="http://sodipodi.sourceforge.net/DTD/sodipodi-0.dtd"
   xmlns="http://www.w3.org/2000/svg"
   xmlns:svg="http://www.w3.org/2000/svg"><sodipodi:namedview
     id="namedview7"
     pagecolor="#505050"
     bordercolor="#ffffff"
     borderopacity="1"
     inkscape:showpageshadow="0"
     inkscape:pageopacity="0"
     inkscape:pagecheckerboard="1"
     inkscape:deskcolor="#505050"
     inkscape:document-units="mm"
     showgrid="false"
     inkscape:zoom="0.72782688"
     inkscape:cx="150.44786"
     inkscape:cy="146.32601"
     inkscape:window-width="1920"
     inkscape:window-height="992"
     inkscape:window-x="-8"
     inkscape:window-y="-8"
     inkscape:window-maximized="1"
     inkscape:current-layer="g1354" /><defs
     id="defs2" /><g
     inkscape:label="Слой 1"
     inkscape:groupmode="layer"
     id="layer1"
     transform="translate(-4.4767844,-3.8231343)"><g
       id="g1354"
       transform="translate(-13.699468,24.356181)"><rect
         style="fill:#d4aa00;stroke-width:0.220074"
         id="rect189"
         width="32.353733"
         height="32.353733"
         x="18.176252"
         y="-11.820686"
         rx="6.6022196"
         transform="scale(1,-1)"
         inkscape:export-filename="..\Desktop\sqrf_logo\logo.svg"
         inkscape:export-xdpi="96"
         inkscape:export-ydpi="96" /><g
         style="fill:none;stroke:#000000;stroke-opacity:1"
         id="g354"
         transform="matrix(1.2631761,0,0,1.230888,19.188684,-19.122204)"><path
           d="M 3.17004,7.43994 12,12.5499 20.77,7.46994"
           stroke="#292d32"
           stroke-width="1.5"
           stroke-linecap="round"
           stroke-linejoin="round"
           id="path339"
           style="stroke:#000000;stroke-opacity:1" /><path
           d="M 12,21.61 V 12.54"
           stroke="#292d32"
           stroke-width="1.5"
           stroke-linecap="round"
           stroke-linejoin="round"
           id="path341"
           style="stroke:#000000;stroke-opacity:1" /><path
           d="m 9.93001,2.48004 -5.34,2.96 c -1.21,0.67 -2.2,2.35 -2.2,3.73 V 14.82 c 0,1.38 0.99,3.06 2.2,3.73 l 5.34,2.97 c 1.13999,0.63 3.00999,0.63 4.14999,0 l 5.34,-2.97 c 1.21,-0.67 2.2,-2.35 2.2,-3.73 V 9.17004 c 0,-1.38 -0.99,-3.06 -2.2,-3.73 l -5.34,-2.97 c -1.15,-0.63 -3.01,-0.63 -4.14999,0.01 z"
           stroke="#292d32"
           stroke-width="1.5"
           stroke-linecap="round"
           stroke-linejoin="round"
           id="path343"
           style="stroke:#000000;stroke-opacity:1" /></g></g></g></svg>
