<?xml version="1.0" encoding="UTF-8" standalone="no"?>
<!-- Created with Inkscape (http://www.inkscape.org/) -->

<svg
   width="142.69841mm"
   height="32.353733mm"
   viewBox="0 0 142.69841 32.353733"
   version="1.1"
   id="svg5"
   inkscape:export-filename="sqrf_white_svg.svg"
   inkscape:export-xdpi="96"
   inkscape:export-ydpi="96"
   sodipodi:docname="sqrf_black_svg.svg"
   xml:space="preserve"
   xmlns:inkscape="http://www.inkscape.org/namespaces/inkscape"
   xmlns:sodipodi="http://sodipodi.sourceforge.net/DTD/sodipodi-0.dtd"
   xmlns="http://www.w3.org/2000/svg"
   xmlns:svg="http://www.w3.org/2000/svg"><sodipodi:namedview
     id="namedview7"
     pagecolor="#505050"
     bordercolor="#ffffff"
     borderopacity="1"
     inkscape:showpageshadow="0"
     inkscape:pageopacity="0"
     inkscape:pagecheckerboard="1"
     inkscape:deskcolor="#505050"
     inkscape:document-units="mm"
     showgrid="false"
     inkscape:zoom="0.72782688"
     inkscape:cx="150.44786"
     inkscape:cy="146.32601"
     inkscape:window-width="1920"
     inkscape:window-height="992"
     inkscape:window-x="-8"
     inkscape:window-y="-8"
     inkscape:window-maximized="1"
     inkscape:current-layer="g1354" /><defs
     id="defs2" /><g
     inkscape:label="Слой 1"
     inkscape:groupmode="layer"
     id="layer1"
     transform="translate(-4.4767844,-3.8231343)"><g
       id="g1354"
       transform="translate(-13.699468,24.356181)"><rect
         style="fill:#d4aa00;stroke-width:0.220074"
         id="rect189"
         width="32.353733"
         height="32.353733"
         x="18.176252"
         y="-11.820686"
         rx="6.6022196"
         transform="scale(1,-1)"
         inkscape:export-filename="..\Desktop\sqrf_logo\rect189.svg"
         inkscape:export-xdpi="96"
         inkscape:export-ydpi="96" /><g
         aria-label="squarefi"
         id="text1292"
         style="font-size:24.2629px;letter-spacing:-0.440148px;fill:none;stroke:#000000;stroke-width:0.336985"
         transform="translate(2.9082007,1.604658)"><path
           d="m 59.795068,-10.858646 h 0.460995 q 2.814496,0 4.537162,1.0433044 1.722666,1.0433047 1.722666,3.129914 v 0.2183661 h -3.76075 v -0.2668919 q 0,-0.9219901 -0.703624,-1.2859336 -0.703624,-0.3882064 -1.795454,-0.3882064 h -0.460995 q -1.116094,0 -1.746929,0.3154177 -0.606573,0.2911548 -0.606573,0.9219901 0,0.7036241 0.824939,1.0190418 0.849201,0.2911548 2.887285,0.5580467 3.008599,0.3882064 4.27027,1.3101966 1.261671,0.8977273 1.261671,2.3535012 v 0.2183661 q 0,1.81971747 -1.67414,2.8144963 -1.649877,0.970516 -4.68274,0.970516 h -0.460995 q -3.008599,0 -4.682739,-1.0190418 -1.649878,-1.01904173 -1.649878,-3.1784398 v -0.242629 h 3.76075 v 0.2668919 q 0,0.8977273 0.679361,1.28593369 0.679361,0.38820639 1.892506,0.38820639 h 0.460995 q 1.358723,0 1.941032,-0.29115479 0.606573,-0.29115479 0.606573,-0.92199019 0,-0.6550983 -0.849202,-0.970516 -0.824938,-0.3396806 -2.935811,-0.6065725 -2.620393,-0.3154176 -4.027641,-1.1403562 -1.407248,-0.8249386 -1.407248,-2.5476045 v -0.1941032 q 0,-1.7954545 1.698403,-2.7659705 1.698403,-0.9947786 4.440111,-0.9947786 z"
           style="-inkscape-font-specification:'Loos Wide Bold';fill:#000000;stroke:none"
           id="path2015" /><path
           d="m 82.598758,-10.616017 h -3.882064 v 1.5285624 h -0.50952 q -0.679362,-0.8249386 -1.698403,-1.2859334 -1.019042,-0.485258 -2.402027,-0.485258 h -0.436733 q -1.188882,0 -2.183661,0.33968 -0.994778,0.339681 -1.722665,1.043305 -0.727887,0.7036241 -1.140357,1.7954546 -0.412469,1.0918304 -0.412469,2.5718673 v 1.4315111 q 0,1.4800368 0.412469,2.5718673 0.41247,1.09183047 1.140357,1.79545455 0.727887,0.70362405 1.722665,1.04330465 0.994779,0.3396806 2.183661,0.3396806 h 0.436733 q 1.431511,0 2.42629,-0.485258 1.019041,-0.485258 1.67414,-1.33445944 h 0.50952 V 7.653946 h 3.882064 z m -6.963452,2.7902332 q 1.382986,0 2.232187,0.6793611 0.849201,0.6550983 0.849201,1.9895578 v 1.5042998 q 0,1.3587223 -0.849201,2.0380835 -0.849201,0.65509829 -2.232187,0.65509829 h -0.436732 q -1.382985,0 -2.25645,-0.67936119 -0.849201,-0.6793612 -0.849201,-2.0138206 v -1.5042998 q 0,-1.3101966 0.849201,-1.9895578 0.873465,-0.6793611 2.25645,-0.6793611 z"
           style="-inkscape-font-specification:'Loos Wide Bold';fill:#000000;stroke:none"
           id="path2017" /><path
           d="M 98.366207,1.8308501 H 94.484143 V 0.20523586 H 93.974622 C 93.602591,0.77137015 93.068807,1.2242776 92.373271,1.5639582 91.69391,1.9036388 90.868971,2.0734791 89.898455,2.0734791 h -0.412469 c -1.5043,0 -2.668919,-0.4205569 -3.493858,-1.26167075 C 85.183365,-0.0293055 84.778983,-1.3314144 84.778983,-3.0945185 v -7.5214985 h 3.882064 v 6.8178745 c 0,0.8572891 0.226454,1.520475 0.679361,1.9895577 0.452908,0.4529075 1.124182,0.6793612 2.013821,0.6793612 h 0.412469 c 0.88964,0 1.560914,-0.2264537 2.013821,-0.6793612 0.469083,-0.4690827 0.703624,-1.1322686 0.703624,-1.9895577 v -6.8178745 h 3.882064 z"
           style="-inkscape-font-specification:'Loos Wide Bold';fill:#000000;stroke:none"
           id="path2019"
           sodipodi:nodetypes="cccccsscsccscssssccc" /><path
           d="m 107.00037,-10.858646 h 0.461 q 3.27549,0 4.82831,1.2131447 1.55283,1.1888821 1.55283,3.2997543 v 8.1765971 h -3.88207 V 0.25376166 h -0.58231 q -0.72788,0.94625304 -1.81971,1.38298524 -1.06757,0.4367322 -2.64466,0.4367322 -1.96529,0 -3.25123,-0.8977273 -1.26167,-0.92199014 -1.26167,-2.8630221 0,-1.8925061 1.33446,-2.9358108 1.33446,-1.0675676 4.22175,-1.0675676 h 4.00337 V -6.345747 q 0,-0.9219902 -0.65509,-1.3587223 -0.63084,-0.4609951 -1.86825,-0.4609951 h -0.43673 q -1.18888,0 -1.86824,0.4367322 -0.6551,0.4367322 -0.6551,1.3344594 h -3.80928 q 0,-2.1108722 1.60136,-3.2754914 1.62561,-1.1888818 4.73126,-1.1888818 z m -0.50952,7.4001841 q -1.21315,0 -1.74693,0.3639434 -0.50952,0.3396806 -0.50952,1.0190418 0,0.6065725 0.53378,0.970516 0.55805,0.36394349 1.7712,0.36394349 0.60657,0 1.21314,-0.1213145 0.63084,-0.1213145 1.11609,-0.38820639 0.48526,-0.2668919 0.77642,-0.727887 0.31541,-0.4609951 0.31541,-1.1160934 v -0.3639434 z"
           style="-inkscape-font-specification:'Loos Wide Bold';fill:#000000;stroke:none"
           id="path2021" /><path
           d="m 116.04701,-10.616017 h 3.88207 v 1.4315108 h 0.48526 q 0.53378,-0.8249388 1.40724,-1.2374078 0.87347,-0.436732 2.13514,-0.436732 1.98956,0 3.03286,1.1160931 1.04331,1.1160934 1.04331,3.7122236 v 0.8249386 h -3.59091 v -0.5095209 q 0,-0.970516 -0.55805,-1.455774 -0.55805,-0.5095208 -1.6984,-0.5095208 -1.14036,0 -1.69841,0.5095208 -0.55804,0.485258 -0.55804,1.455774 v 7.5457617 h -3.88207 z"
           style="-inkscape-font-specification:'Loos Wide Bold';fill:#000000;stroke:none"
           id="path2023" /><path
           d="m 136.01197,-10.858646 h 0.46099 q 1.48004,0 2.71745,0.363943 1.26167,0.363944 2.15939,1.0918307 0.89773,0.7036241 1.40725,1.7954546 0.50952,1.0918304 0.50952,2.5476044 v 1.5770885 h -10.43304 v 0.1455774 q 0,1.3344594 0.82494,2.0138206 0.82493,0.67936119 2.3535,0.67936119 h 0.46099 q 1.26167,0 2.06235,-0.38820639 0.80067,-0.3882064 1.0433,-1.2859337 h 3.56665 q -0.24263,1.91676908 -1.89251,3.15417695 -1.64987,1.23740785 -4.77979,1.23740785 h -0.46099 q -1.48004,0 -2.74171,-0.3396806 -1.26167,-0.3639435 -2.18366,-1.06756755 -0.89773,-0.70362408 -1.40725,-1.77119165 -0.50952,-1.0918305 -0.50952,-2.5476044 v -1.4072482 q 0,-1.455774 0.50952,-2.5476044 0.50952,-1.0918305 1.40725,-1.7954546 0.92199,-0.7278867 2.18366,-1.0918307 1.26167,-0.363943 2.74171,-0.363943 z m -0.0243,2.7174445 q -1.43151,0 -2.23218,0.5823096 -0.80068,0.5580466 -0.89773,1.6256142 h 6.72082 q -0.097,-1.0675676 -0.94625,-1.6256142 -0.8492,-0.5823096 -2.18366,-0.5823096 z"
           style="-inkscape-font-specification:'Loos Wide Bold';fill:#000000;stroke:none"
           id="path2025" /><path
           d="m 151.80369,-16.366324 h 0.36394 q 1.23741,0 2.30497,0.266891 1.06757,0.266892 1.81972,0.824939 0.77641,0.533784 1.21315,1.382985 0.46099,0.824939 0.46099,1.941032 h -3.8578 q 0,-0.703624 -0.46099,-1.116093 -0.461,-0.412469 -1.5043,-0.412469 h -0.31542 q -1.04331,0 -1.52856,0.485258 -0.461,0.485258 -0.461,1.310196 v 1.067568 h 8.12807 V 1.8308501 h -3.8578 v -9.6566339 h -4.27027 v 9.6566339 h -3.88206 v -9.6566339 h -1.86825 v -2.7902332 h 1.86825 v -1.067568 q 0,-1.188882 0.46099,-2.062346 0.461,-0.897728 1.23741,-1.480037 0.77641,-0.58231 1.84398,-0.849202 1.09183,-0.291154 2.30498,-0.291154 z"
           style="-inkscape-font-specification:'Loos Wide Bold';fill:#000000;stroke:none"
           id="path2027" /></g><g
         style="fill:none;stroke:#000000;stroke-opacity:1"
         id="g354"
         transform="matrix(1.2631761,0,0,1.230888,19.188684,-19.122204)"><path
           d="M 3.17004,7.43994 12,12.5499 20.77,7.46994"
           stroke="#292d32"
           stroke-width="1.5"
           stroke-linecap="round"
           stroke-linejoin="round"
           id="path339"
           style="stroke:#000000;stroke-opacity:1" /><path
           d="M 12,21.61 V 12.54"
           stroke="#292d32"
           stroke-width="1.5"
           stroke-linecap="round"
           stroke-linejoin="round"
           id="path341"
           style="stroke:#000000;stroke-opacity:1" /><path
           d="m 9.93001,2.48004 -5.34,2.96 c -1.21,0.67 -2.2,2.35 -2.2,3.73 V 14.82 c 0,1.38 0.99,3.06 2.2,3.73 l 5.34,2.97 c 1.13999,0.63 3.00999,0.63 4.14999,0 l 5.34,-2.97 c 1.21,-0.67 2.2,-2.35 2.2,-3.73 V 9.17004 c 0,-1.38 -0.99,-3.06 -2.2,-3.73 l -5.34,-2.97 c -1.15,-0.63 -3.01,-0.63 -4.14999,0.01 z"
           stroke="#292d32"
           stroke-width="1.5"
           stroke-linecap="round"
           stroke-linejoin="round"
           id="path343"
           style="stroke:#000000;stroke-opacity:1" /></g></g></g></svg>
